# xmcd
#
# Track frame offsets:
#	150
#	19461
#	36665
#	51501
#	73989
#	89595
#	111098
#	129644
#	146091
#	163422
#	196861
#	213974
#	238323
#	263408
#
# Disc length: 3755 seconds
#
# Revision: 0
# Processed by: cddbd v1.5.1PL2 Copyright (c) Steve Scherf et al.
# Submitted via: dBpowerAMP V4.0
#
DISCID=e30ea90e
DTITLE=Gas Money - 22 Dollars
DYEAR=2005
DGENRE=Country
TTITLE0=Drink Tickets
TTITLE1=All Alone (In My Honky Tonk World)
TTITLE2=Cannonball Blues
TTITLE3=Nashville Hotel
TTITLE4=Black Jack David
TTITLE5=Pretty Bar Girl
TTITLE6=Whisky Drinkin' Friends
TTITLE7=Diggin' a Hole to Bury My Heart
TTITLE8=Duggo
TTITLE9=Ballad of Tom Smith
TTITLE10=Ridin' the Rails
TTITLE11=Dixie Girl
TTITLE12=South Philly Skyline
TTITLE13=Gatlin Gun Blues
EXTD=
EXTT0=
EXTT1=
EXTT2=
EXTT3=
EXTT4=
EXTT5=
EXTT6=
EXTT7=
EXTT8=
EXTT9=
EXTT10=
EXTT11=
EXTT12=
EXTT13=
PLAYORDER=
